# xmcd
#
# Track frame offsets: 
#        150
#        28117
#        49805
#        70240
#
# Disc length: 1207 seconds
#
# Revision: 0
# Processed by: cddbd v1.5.2PL0 Copyright (c) Steve Scherf et al.
# Submitted via: ExactAudioCopy v0.99pb5
#
DISCID=3204b504
DTITLE=Arcturus - Constellation
DYEAR=1994
DGENRE=Black Metal
TTITLE0=Rodt Og Svart
TTITLE1=Icebound Streams And Vapours Grey
TTITLE2=Naar Kulda Tar (Frostnettens Prolog)
TTITLE3=Du Nordavind
EXTD=
EXTT0=
EXTT1=
EXTT2=
EXTT3=
PLAYORDER=
